<mxfile host="Electron" modified="2023-06-12T17:48:41.048Z" agent="Mozilla/5.0 (Windows NT 10.0; Win64; x64) AppleWebKit/537.36 (KHTML, like Gecko) draw.io/21.2.8 Chrome/112.0.5615.165 Electron/24.2.0 Safari/537.36" etag="cE93XFpiwV0wE9KjTSeB" version="21.2.8" type="device">
  <diagram name="Page-1" id="bESfWnchHBu_bydkfVWF">
    <mxGraphModel dx="1395" dy="697" grid="1" gridSize="10" guides="1" tooltips="1" connect="1" arrows="1" fold="1" page="1" pageScale="1" pageWidth="850" pageHeight="1100" math="0" shadow="0">
      <root>
        <mxCell id="0" />
        <mxCell id="1" parent="0" />
        <mxCell id="4guwdgJZDsBy7avfMB6--40" value="" style="points=[[0.25,0,0],[0.5,0,0],[0.75,0,0],[1,0.25,0],[1,0.5,0],[1,0.75,0],[0.75,1,0],[0.5,1,0],[0.25,1,0],[0,0.75,0],[0,0.5,0],[0,0.25,0]];shape=mxgraph.bpmn.task;whiteSpace=wrap;rectStyle=rounded;size=10;html=1;container=1;expand=0;collapsible=0;taskMarker=script;" vertex="1" parent="1">
          <mxGeometry x="113" y="20" width="707" height="590" as="geometry" />
        </mxCell>
        <mxCell id="4guwdgJZDsBy7avfMB6--83" value="" style="group" vertex="1" connectable="0" parent="4guwdgJZDsBy7avfMB6--40">
          <mxGeometry x="374" y="30" width="224.5" height="150" as="geometry" />
        </mxCell>
        <mxCell id="4guwdgJZDsBy7avfMB6--70" value="" style="shape=table;startSize=0;container=1;collapsible=0;childLayout=tableLayout;fontSize=16;" vertex="1" parent="4guwdgJZDsBy7avfMB6--83">
          <mxGeometry y="30" width="123" height="120" as="geometry" />
        </mxCell>
        <mxCell id="4guwdgJZDsBy7avfMB6--71" value="" style="shape=tableRow;horizontal=0;startSize=0;swimlaneHead=0;swimlaneBody=0;strokeColor=inherit;top=0;left=0;bottom=0;right=0;collapsible=0;dropTarget=0;fillColor=none;points=[[0,0.5],[1,0.5]];portConstraint=eastwest;fontSize=16;" vertex="1" parent="4guwdgJZDsBy7avfMB6--70">
          <mxGeometry width="123" height="40" as="geometry" />
        </mxCell>
        <mxCell id="4guwdgJZDsBy7avfMB6--72" value="" style="shape=partialRectangle;html=1;whiteSpace=wrap;connectable=0;strokeColor=inherit;overflow=hidden;fillColor=none;top=0;left=0;bottom=0;right=0;pointerEvents=1;fontSize=16;" vertex="1" parent="4guwdgJZDsBy7avfMB6--71">
          <mxGeometry width="41" height="40" as="geometry">
            <mxRectangle width="41" height="40" as="alternateBounds" />
          </mxGeometry>
        </mxCell>
        <mxCell id="4guwdgJZDsBy7avfMB6--73" value="" style="shape=partialRectangle;html=1;whiteSpace=wrap;connectable=0;strokeColor=inherit;overflow=hidden;fillColor=none;top=0;left=0;bottom=0;right=0;pointerEvents=1;fontSize=16;" vertex="1" parent="4guwdgJZDsBy7avfMB6--71">
          <mxGeometry x="41" width="41" height="40" as="geometry">
            <mxRectangle width="41" height="40" as="alternateBounds" />
          </mxGeometry>
        </mxCell>
        <mxCell id="4guwdgJZDsBy7avfMB6--74" value="" style="shape=partialRectangle;html=1;whiteSpace=wrap;connectable=0;strokeColor=inherit;overflow=hidden;fillColor=none;top=0;left=0;bottom=0;right=0;pointerEvents=1;fontSize=16;" vertex="1" parent="4guwdgJZDsBy7avfMB6--71">
          <mxGeometry x="82" width="41" height="40" as="geometry">
            <mxRectangle width="41" height="40" as="alternateBounds" />
          </mxGeometry>
        </mxCell>
        <mxCell id="4guwdgJZDsBy7avfMB6--75" value="" style="shape=tableRow;horizontal=0;startSize=0;swimlaneHead=0;swimlaneBody=0;strokeColor=inherit;top=0;left=0;bottom=0;right=0;collapsible=0;dropTarget=0;fillColor=none;points=[[0,0.5],[1,0.5]];portConstraint=eastwest;fontSize=16;" vertex="1" parent="4guwdgJZDsBy7avfMB6--70">
          <mxGeometry y="40" width="123" height="40" as="geometry" />
        </mxCell>
        <mxCell id="4guwdgJZDsBy7avfMB6--76" value="" style="shape=partialRectangle;html=1;whiteSpace=wrap;connectable=0;strokeColor=inherit;overflow=hidden;fillColor=none;top=0;left=0;bottom=0;right=0;pointerEvents=1;fontSize=16;" vertex="1" parent="4guwdgJZDsBy7avfMB6--75">
          <mxGeometry width="41" height="40" as="geometry">
            <mxRectangle width="41" height="40" as="alternateBounds" />
          </mxGeometry>
        </mxCell>
        <mxCell id="4guwdgJZDsBy7avfMB6--77" value="" style="shape=partialRectangle;html=1;whiteSpace=wrap;connectable=0;strokeColor=inherit;overflow=hidden;fillColor=none;top=0;left=0;bottom=0;right=0;pointerEvents=1;fontSize=16;" vertex="1" parent="4guwdgJZDsBy7avfMB6--75">
          <mxGeometry x="41" width="41" height="40" as="geometry">
            <mxRectangle width="41" height="40" as="alternateBounds" />
          </mxGeometry>
        </mxCell>
        <mxCell id="4guwdgJZDsBy7avfMB6--78" value="" style="shape=partialRectangle;html=1;whiteSpace=wrap;connectable=0;strokeColor=inherit;overflow=hidden;fillColor=none;top=0;left=0;bottom=0;right=0;pointerEvents=1;fontSize=16;" vertex="1" parent="4guwdgJZDsBy7avfMB6--75">
          <mxGeometry x="82" width="41" height="40" as="geometry">
            <mxRectangle width="41" height="40" as="alternateBounds" />
          </mxGeometry>
        </mxCell>
        <mxCell id="4guwdgJZDsBy7avfMB6--79" value="" style="shape=tableRow;horizontal=0;startSize=0;swimlaneHead=0;swimlaneBody=0;strokeColor=inherit;top=0;left=0;bottom=0;right=0;collapsible=0;dropTarget=0;fillColor=none;points=[[0,0.5],[1,0.5]];portConstraint=eastwest;fontSize=16;" vertex="1" parent="4guwdgJZDsBy7avfMB6--70">
          <mxGeometry y="80" width="123" height="40" as="geometry" />
        </mxCell>
        <mxCell id="4guwdgJZDsBy7avfMB6--80" value="" style="shape=partialRectangle;html=1;whiteSpace=wrap;connectable=0;strokeColor=inherit;overflow=hidden;fillColor=none;top=0;left=0;bottom=0;right=0;pointerEvents=1;fontSize=16;" vertex="1" parent="4guwdgJZDsBy7avfMB6--79">
          <mxGeometry width="41" height="40" as="geometry">
            <mxRectangle width="41" height="40" as="alternateBounds" />
          </mxGeometry>
        </mxCell>
        <mxCell id="4guwdgJZDsBy7avfMB6--81" value="" style="shape=partialRectangle;html=1;whiteSpace=wrap;connectable=0;strokeColor=inherit;overflow=hidden;fillColor=none;top=0;left=0;bottom=0;right=0;pointerEvents=1;fontSize=16;" vertex="1" parent="4guwdgJZDsBy7avfMB6--79">
          <mxGeometry x="41" width="41" height="40" as="geometry">
            <mxRectangle width="41" height="40" as="alternateBounds" />
          </mxGeometry>
        </mxCell>
        <mxCell id="4guwdgJZDsBy7avfMB6--82" value="" style="shape=partialRectangle;html=1;whiteSpace=wrap;connectable=0;strokeColor=inherit;overflow=hidden;fillColor=none;top=0;left=0;bottom=0;right=0;pointerEvents=1;fontSize=16;" vertex="1" parent="4guwdgJZDsBy7avfMB6--79">
          <mxGeometry x="82" width="41" height="40" as="geometry">
            <mxRectangle width="41" height="40" as="alternateBounds" />
          </mxGeometry>
        </mxCell>
        <mxCell id="4guwdgJZDsBy7avfMB6--1" value="User" style="shape=umlActor;verticalLabelPosition=bottom;verticalAlign=top;html=1;outlineConnect=0;" vertex="1" parent="4guwdgJZDsBy7avfMB6--40">
          <mxGeometry x="-103" y="90" width="30" height="60" as="geometry" />
        </mxCell>
        <mxCell id="4guwdgJZDsBy7avfMB6--35" value="&lt;br&gt;User input:&lt;br style=&quot;border-color: var(--border-color);&quot;&gt;1) vectors_amount" style="html=1;strokeWidth=2;shape=manualInput;whiteSpace=wrap;rounded=1;size=26;arcSize=11;fillColor=#7AB8FF;" vertex="1" parent="4guwdgJZDsBy7avfMB6--40">
          <mxGeometry x="-16" y="65" width="160" height="80" as="geometry" />
        </mxCell>
        <mxCell id="4guwdgJZDsBy7avfMB6--37" style="edgeStyle=orthogonalEdgeStyle;rounded=0;orthogonalLoop=1;jettySize=auto;html=1;entryX=0.004;entryY=0.695;entryDx=0;entryDy=0;entryPerimeter=0;" edge="1" parent="4guwdgJZDsBy7avfMB6--40" source="4guwdgJZDsBy7avfMB6--1" target="4guwdgJZDsBy7avfMB6--35">
          <mxGeometry relative="1" as="geometry" />
        </mxCell>
        <mxCell id="4guwdgJZDsBy7avfMB6--21" value="Generating&lt;br&gt;random &lt;br&gt;vectors" style="edgeStyle=orthogonalEdgeStyle;rounded=0;orthogonalLoop=1;jettySize=auto;html=1;" edge="1" parent="4guwdgJZDsBy7avfMB6--40">
          <mxGeometry relative="1" as="geometry">
            <mxPoint x="137" y="120" as="sourcePoint" />
            <mxPoint x="224" y="120" as="targetPoint" />
          </mxGeometry>
        </mxCell>
        <mxCell id="4guwdgJZDsBy7avfMB6--19" value="" style="group" vertex="1" connectable="0" parent="4guwdgJZDsBy7avfMB6--40">
          <mxGeometry x="224" y="30" width="180" height="150" as="geometry" />
        </mxCell>
        <mxCell id="4guwdgJZDsBy7avfMB6--20" value="" style="group" vertex="1" connectable="0" parent="4guwdgJZDsBy7avfMB6--19">
          <mxGeometry width="120" height="150" as="geometry" />
        </mxCell>
        <mxCell id="4guwdgJZDsBy7avfMB6--5" value="vectors values" style="rounded=1;whiteSpace=wrap;html=1;" vertex="1" parent="4guwdgJZDsBy7avfMB6--20">
          <mxGeometry x="3.06" width="106.94" height="30" as="geometry" />
        </mxCell>
        <mxCell id="4guwdgJZDsBy7avfMB6--22" value="" style="childLayout=tableLayout;recursiveResize=0;shadow=0;fillColor=none;" vertex="1" parent="4guwdgJZDsBy7avfMB6--20">
          <mxGeometry x="1.5299999999999994" y="30" width="110" height="120" as="geometry" />
        </mxCell>
        <mxCell id="4guwdgJZDsBy7avfMB6--23" value="" style="shape=tableRow;horizontal=0;startSize=0;swimlaneHead=0;swimlaneBody=0;top=0;left=0;bottom=0;right=0;dropTarget=0;collapsible=0;recursiveResize=0;expand=0;fontStyle=0;fillColor=none;strokeColor=inherit;" vertex="1" parent="4guwdgJZDsBy7avfMB6--22">
          <mxGeometry width="110" height="40" as="geometry" />
        </mxCell>
        <mxCell id="4guwdgJZDsBy7avfMB6--24" value="Value 1" style="connectable=0;recursiveResize=0;strokeColor=inherit;fillColor=none;align=center;whiteSpace=wrap;html=1;" vertex="1" parent="4guwdgJZDsBy7avfMB6--23">
          <mxGeometry width="36" height="40" as="geometry">
            <mxRectangle width="36" height="40" as="alternateBounds" />
          </mxGeometry>
        </mxCell>
        <mxCell id="4guwdgJZDsBy7avfMB6--25" value="Value 2" style="connectable=0;recursiveResize=0;strokeColor=inherit;fillColor=none;align=center;whiteSpace=wrap;html=1;" vertex="1" parent="4guwdgJZDsBy7avfMB6--23">
          <mxGeometry x="36" width="38" height="40" as="geometry">
            <mxRectangle width="38" height="40" as="alternateBounds" />
          </mxGeometry>
        </mxCell>
        <mxCell id="4guwdgJZDsBy7avfMB6--26" value="Value 3" style="connectable=0;recursiveResize=0;strokeColor=inherit;fillColor=none;align=center;whiteSpace=wrap;html=1;" vertex="1" parent="4guwdgJZDsBy7avfMB6--23">
          <mxGeometry x="74" width="36" height="40" as="geometry">
            <mxRectangle width="36" height="40" as="alternateBounds" />
          </mxGeometry>
        </mxCell>
        <mxCell id="4guwdgJZDsBy7avfMB6--27" style="shape=tableRow;horizontal=0;startSize=0;swimlaneHead=0;swimlaneBody=0;top=0;left=0;bottom=0;right=0;dropTarget=0;collapsible=0;recursiveResize=0;expand=0;fontStyle=0;fillColor=none;strokeColor=inherit;" vertex="1" parent="4guwdgJZDsBy7avfMB6--22">
          <mxGeometry y="40" width="110" height="40" as="geometry" />
        </mxCell>
        <mxCell id="4guwdgJZDsBy7avfMB6--28" value="Value 4" style="connectable=0;recursiveResize=0;strokeColor=inherit;fillColor=none;align=center;whiteSpace=wrap;html=1;" vertex="1" parent="4guwdgJZDsBy7avfMB6--27">
          <mxGeometry width="36" height="40" as="geometry">
            <mxRectangle width="36" height="40" as="alternateBounds" />
          </mxGeometry>
        </mxCell>
        <mxCell id="4guwdgJZDsBy7avfMB6--29" value="Value 5" style="connectable=0;recursiveResize=0;strokeColor=inherit;fillColor=none;align=center;whiteSpace=wrap;html=1;" vertex="1" parent="4guwdgJZDsBy7avfMB6--27">
          <mxGeometry x="36" width="38" height="40" as="geometry">
            <mxRectangle width="38" height="40" as="alternateBounds" />
          </mxGeometry>
        </mxCell>
        <mxCell id="4guwdgJZDsBy7avfMB6--30" value="Value 6" style="connectable=0;recursiveResize=0;strokeColor=inherit;fillColor=none;align=center;whiteSpace=wrap;html=1;" vertex="1" parent="4guwdgJZDsBy7avfMB6--27">
          <mxGeometry x="74" width="36" height="40" as="geometry">
            <mxRectangle width="36" height="40" as="alternateBounds" />
          </mxGeometry>
        </mxCell>
        <mxCell id="4guwdgJZDsBy7avfMB6--31" style="shape=tableRow;horizontal=0;startSize=0;swimlaneHead=0;swimlaneBody=0;top=0;left=0;bottom=0;right=0;dropTarget=0;collapsible=0;recursiveResize=0;expand=0;fontStyle=0;fillColor=none;strokeColor=inherit;" vertex="1" parent="4guwdgJZDsBy7avfMB6--22">
          <mxGeometry y="80" width="110" height="40" as="geometry" />
        </mxCell>
        <mxCell id="4guwdgJZDsBy7avfMB6--32" value="Value 7" style="connectable=0;recursiveResize=0;strokeColor=inherit;fillColor=none;align=center;whiteSpace=wrap;html=1;" vertex="1" parent="4guwdgJZDsBy7avfMB6--31">
          <mxGeometry width="36" height="40" as="geometry">
            <mxRectangle width="36" height="40" as="alternateBounds" />
          </mxGeometry>
        </mxCell>
        <mxCell id="4guwdgJZDsBy7avfMB6--33" value="Value 8" style="connectable=0;recursiveResize=0;strokeColor=inherit;fillColor=none;align=center;whiteSpace=wrap;html=1;" vertex="1" parent="4guwdgJZDsBy7avfMB6--31">
          <mxGeometry x="36" width="38" height="40" as="geometry">
            <mxRectangle width="38" height="40" as="alternateBounds" />
          </mxGeometry>
        </mxCell>
        <mxCell id="4guwdgJZDsBy7avfMB6--34" value="Value 9" style="connectable=0;recursiveResize=0;strokeColor=inherit;fillColor=none;align=center;whiteSpace=wrap;html=1;" vertex="1" parent="4guwdgJZDsBy7avfMB6--31">
          <mxGeometry x="74" width="36" height="40" as="geometry">
            <mxRectangle width="36" height="40" as="alternateBounds" />
          </mxGeometry>
        </mxCell>
        <mxCell id="4guwdgJZDsBy7avfMB6--84" value="" style="group" vertex="1" connectable="0" parent="4guwdgJZDsBy7avfMB6--40">
          <mxGeometry x="537" y="30" width="183" height="150" as="geometry" />
        </mxCell>
        <mxCell id="4guwdgJZDsBy7avfMB6--85" value="" style="group" vertex="1" connectable="0" parent="4guwdgJZDsBy7avfMB6--84">
          <mxGeometry x="3" width="180" height="150" as="geometry" />
        </mxCell>
        <mxCell id="4guwdgJZDsBy7avfMB6--86" value="" style="group" vertex="1" connectable="0" parent="4guwdgJZDsBy7avfMB6--85">
          <mxGeometry width="120" height="150" as="geometry" />
        </mxCell>
        <mxCell id="4guwdgJZDsBy7avfMB6--87" value="vectors&#39;s probability" style="rounded=1;whiteSpace=wrap;html=1;" vertex="1" parent="4guwdgJZDsBy7avfMB6--86">
          <mxGeometry x="3.06" width="106.94" height="30" as="geometry" />
        </mxCell>
        <mxCell id="4guwdgJZDsBy7avfMB6--88" value="" style="shape=table;startSize=0;container=1;collapsible=0;childLayout=tableLayout;fontSize=16;" vertex="1" parent="4guwdgJZDsBy7avfMB6--84">
          <mxGeometry y="30" width="123" height="120" as="geometry" />
        </mxCell>
        <mxCell id="4guwdgJZDsBy7avfMB6--89" value="" style="shape=tableRow;horizontal=0;startSize=0;swimlaneHead=0;swimlaneBody=0;strokeColor=inherit;top=0;left=0;bottom=0;right=0;collapsible=0;dropTarget=0;fillColor=none;points=[[0,0.5],[1,0.5]];portConstraint=eastwest;fontSize=16;" vertex="1" parent="4guwdgJZDsBy7avfMB6--88">
          <mxGeometry width="123" height="40" as="geometry" />
        </mxCell>
        <mxCell id="4guwdgJZDsBy7avfMB6--90" value="" style="shape=partialRectangle;html=1;whiteSpace=wrap;connectable=0;strokeColor=inherit;overflow=hidden;fillColor=none;top=0;left=0;bottom=0;right=0;pointerEvents=1;fontSize=16;" vertex="1" parent="4guwdgJZDsBy7avfMB6--89">
          <mxGeometry width="41" height="40" as="geometry">
            <mxRectangle width="41" height="40" as="alternateBounds" />
          </mxGeometry>
        </mxCell>
        <mxCell id="4guwdgJZDsBy7avfMB6--91" value="" style="shape=partialRectangle;html=1;whiteSpace=wrap;connectable=0;strokeColor=inherit;overflow=hidden;fillColor=none;top=0;left=0;bottom=0;right=0;pointerEvents=1;fontSize=16;" vertex="1" parent="4guwdgJZDsBy7avfMB6--89">
          <mxGeometry x="41" width="41" height="40" as="geometry">
            <mxRectangle width="41" height="40" as="alternateBounds" />
          </mxGeometry>
        </mxCell>
        <mxCell id="4guwdgJZDsBy7avfMB6--92" value="" style="shape=partialRectangle;html=1;whiteSpace=wrap;connectable=0;strokeColor=inherit;overflow=hidden;fillColor=none;top=0;left=0;bottom=0;right=0;pointerEvents=1;fontSize=16;" vertex="1" parent="4guwdgJZDsBy7avfMB6--89">
          <mxGeometry x="82" width="41" height="40" as="geometry">
            <mxRectangle width="41" height="40" as="alternateBounds" />
          </mxGeometry>
        </mxCell>
        <mxCell id="4guwdgJZDsBy7avfMB6--93" value="" style="shape=tableRow;horizontal=0;startSize=0;swimlaneHead=0;swimlaneBody=0;strokeColor=inherit;top=0;left=0;bottom=0;right=0;collapsible=0;dropTarget=0;fillColor=none;points=[[0,0.5],[1,0.5]];portConstraint=eastwest;fontSize=16;" vertex="1" parent="4guwdgJZDsBy7avfMB6--88">
          <mxGeometry y="40" width="123" height="40" as="geometry" />
        </mxCell>
        <mxCell id="4guwdgJZDsBy7avfMB6--94" value="" style="shape=partialRectangle;html=1;whiteSpace=wrap;connectable=0;strokeColor=inherit;overflow=hidden;fillColor=none;top=0;left=0;bottom=0;right=0;pointerEvents=1;fontSize=16;" vertex="1" parent="4guwdgJZDsBy7avfMB6--93">
          <mxGeometry width="41" height="40" as="geometry">
            <mxRectangle width="41" height="40" as="alternateBounds" />
          </mxGeometry>
        </mxCell>
        <mxCell id="4guwdgJZDsBy7avfMB6--95" value="" style="shape=partialRectangle;html=1;whiteSpace=wrap;connectable=0;strokeColor=inherit;overflow=hidden;fillColor=none;top=0;left=0;bottom=0;right=0;pointerEvents=1;fontSize=16;" vertex="1" parent="4guwdgJZDsBy7avfMB6--93">
          <mxGeometry x="41" width="41" height="40" as="geometry">
            <mxRectangle width="41" height="40" as="alternateBounds" />
          </mxGeometry>
        </mxCell>
        <mxCell id="4guwdgJZDsBy7avfMB6--96" value="" style="shape=partialRectangle;html=1;whiteSpace=wrap;connectable=0;strokeColor=inherit;overflow=hidden;fillColor=none;top=0;left=0;bottom=0;right=0;pointerEvents=1;fontSize=16;" vertex="1" parent="4guwdgJZDsBy7avfMB6--93">
          <mxGeometry x="82" width="41" height="40" as="geometry">
            <mxRectangle width="41" height="40" as="alternateBounds" />
          </mxGeometry>
        </mxCell>
        <mxCell id="4guwdgJZDsBy7avfMB6--97" value="" style="shape=tableRow;horizontal=0;startSize=0;swimlaneHead=0;swimlaneBody=0;strokeColor=inherit;top=0;left=0;bottom=0;right=0;collapsible=0;dropTarget=0;fillColor=none;points=[[0,0.5],[1,0.5]];portConstraint=eastwest;fontSize=16;" vertex="1" parent="4guwdgJZDsBy7avfMB6--88">
          <mxGeometry y="80" width="123" height="40" as="geometry" />
        </mxCell>
        <mxCell id="4guwdgJZDsBy7avfMB6--98" value="" style="shape=partialRectangle;html=1;whiteSpace=wrap;connectable=0;strokeColor=inherit;overflow=hidden;fillColor=none;top=0;left=0;bottom=0;right=0;pointerEvents=1;fontSize=16;" vertex="1" parent="4guwdgJZDsBy7avfMB6--97">
          <mxGeometry width="41" height="40" as="geometry">
            <mxRectangle width="41" height="40" as="alternateBounds" />
          </mxGeometry>
        </mxCell>
        <mxCell id="4guwdgJZDsBy7avfMB6--99" value="" style="shape=partialRectangle;html=1;whiteSpace=wrap;connectable=0;strokeColor=inherit;overflow=hidden;fillColor=none;top=0;left=0;bottom=0;right=0;pointerEvents=1;fontSize=16;" vertex="1" parent="4guwdgJZDsBy7avfMB6--97">
          <mxGeometry x="41" width="41" height="40" as="geometry">
            <mxRectangle width="41" height="40" as="alternateBounds" />
          </mxGeometry>
        </mxCell>
        <mxCell id="4guwdgJZDsBy7avfMB6--100" value="" style="shape=partialRectangle;html=1;whiteSpace=wrap;connectable=0;strokeColor=inherit;overflow=hidden;fillColor=none;top=0;left=0;bottom=0;right=0;pointerEvents=1;fontSize=16;" vertex="1" parent="4guwdgJZDsBy7avfMB6--97">
          <mxGeometry x="82" width="41" height="40" as="geometry">
            <mxRectangle width="41" height="40" as="alternateBounds" />
          </mxGeometry>
        </mxCell>
        <mxCell id="4guwdgJZDsBy7avfMB6--101" style="edgeStyle=orthogonalEdgeStyle;rounded=0;orthogonalLoop=1;jettySize=auto;html=1;" edge="1" parent="4guwdgJZDsBy7avfMB6--40" source="4guwdgJZDsBy7avfMB6--27" target="4guwdgJZDsBy7avfMB6--75">
          <mxGeometry relative="1" as="geometry" />
        </mxCell>
        <mxCell id="4guwdgJZDsBy7avfMB6--102" style="edgeStyle=orthogonalEdgeStyle;rounded=0;orthogonalLoop=1;jettySize=auto;html=1;entryX=0;entryY=0.5;entryDx=0;entryDy=0;" edge="1" parent="4guwdgJZDsBy7avfMB6--40" source="4guwdgJZDsBy7avfMB6--75" target="4guwdgJZDsBy7avfMB6--93">
          <mxGeometry relative="1" as="geometry" />
        </mxCell>
        <mxCell id="4guwdgJZDsBy7avfMB6--123" style="edgeStyle=orthogonalEdgeStyle;rounded=0;orthogonalLoop=1;jettySize=auto;html=1;" edge="1" parent="4guwdgJZDsBy7avfMB6--40" source="4guwdgJZDsBy7avfMB6--103" target="4guwdgJZDsBy7avfMB6--106">
          <mxGeometry relative="1" as="geometry" />
        </mxCell>
        <mxCell id="4guwdgJZDsBy7avfMB6--103" value="&lt;b&gt;&lt;font style=&quot;font-size: 14px;&quot;&gt;Cumulative &lt;br&gt;Distribution &lt;br&gt;Queue&lt;/font&gt;&lt;/b&gt;" style="outlineConnect=0;dashed=0;verticalLabelPosition=bottom;verticalAlign=top;align=center;html=1;shape=mxgraph.aws3.queue;fillColor=#0DCFFF;gradientColor=none;" vertex="1" parent="4guwdgJZDsBy7avfMB6--40">
          <mxGeometry x="564.5" y="265" width="95.5" height="70" as="geometry" />
        </mxCell>
        <mxCell id="4guwdgJZDsBy7avfMB6--104" style="edgeStyle=orthogonalEdgeStyle;rounded=0;orthogonalLoop=1;jettySize=auto;html=1;" edge="1" parent="4guwdgJZDsBy7avfMB6--40" source="4guwdgJZDsBy7avfMB6--88" target="4guwdgJZDsBy7avfMB6--103">
          <mxGeometry relative="1" as="geometry">
            <Array as="points">
              <mxPoint x="612" y="210" />
              <mxPoint x="612" y="210" />
            </Array>
          </mxGeometry>
        </mxCell>
        <mxCell id="4guwdgJZDsBy7avfMB6--117" style="edgeStyle=orthogonalEdgeStyle;rounded=0;orthogonalLoop=1;jettySize=auto;html=1;entryX=1;entryY=0.5;entryDx=0;entryDy=0;" edge="1" parent="4guwdgJZDsBy7avfMB6--40" source="4guwdgJZDsBy7avfMB6--106" target="4guwdgJZDsBy7avfMB6--113">
          <mxGeometry relative="1" as="geometry" />
        </mxCell>
        <mxCell id="4guwdgJZDsBy7avfMB6--118" style="edgeStyle=orthogonalEdgeStyle;rounded=0;orthogonalLoop=1;jettySize=auto;html=1;entryX=1;entryY=0.5;entryDx=0;entryDy=0;" edge="1" parent="4guwdgJZDsBy7avfMB6--40" source="4guwdgJZDsBy7avfMB6--106" target="4guwdgJZDsBy7avfMB6--114">
          <mxGeometry relative="1" as="geometry" />
        </mxCell>
        <mxCell id="4guwdgJZDsBy7avfMB6--120" style="edgeStyle=orthogonalEdgeStyle;rounded=0;orthogonalLoop=1;jettySize=auto;html=1;entryX=1;entryY=0.5;entryDx=0;entryDy=0;" edge="1" parent="4guwdgJZDsBy7avfMB6--40" source="4guwdgJZDsBy7avfMB6--106" target="4guwdgJZDsBy7avfMB6--119">
          <mxGeometry relative="1" as="geometry" />
        </mxCell>
        <mxCell id="4guwdgJZDsBy7avfMB6--106" value="Randomize probability and choose the winning&amp;nbsp; vector per round&amp;nbsp;" style="rounded=1;whiteSpace=wrap;html=1;" vertex="1" parent="4guwdgJZDsBy7avfMB6--40">
          <mxGeometry x="410.75" y="270" width="120" height="60" as="geometry" />
        </mxCell>
        <mxCell id="4guwdgJZDsBy7avfMB6--41" value="" style="group" vertex="1" connectable="0" parent="4guwdgJZDsBy7avfMB6--40">
          <mxGeometry x="387" y="20" width="221.5" height="150" as="geometry" />
        </mxCell>
        <mxCell id="4guwdgJZDsBy7avfMB6--42" value="" style="group" vertex="1" connectable="0" parent="4guwdgJZDsBy7avfMB6--41">
          <mxGeometry width="221.5" height="150" as="geometry" />
        </mxCell>
        <mxCell id="4guwdgJZDsBy7avfMB6--43" value="rank vectors" style="rounded=1;whiteSpace=wrap;html=1;" vertex="1" parent="4guwdgJZDsBy7avfMB6--42">
          <mxGeometry x="3.06" width="106.94" height="30" as="geometry" />
        </mxCell>
        <mxCell id="4guwdgJZDsBy7avfMB6--108" value="&lt;font style=&quot;&quot;&gt;&lt;span style=&quot;color: rgb(32, 33, 36); font-family: &amp;quot;Google Sans&amp;quot;, arial, sans-serif; font-style: normal; font-variant-ligatures: normal; font-variant-caps: normal; font-weight: 400; letter-spacing: normal; orphans: 2; text-align: left; text-indent: 0px; text-transform: none; widows: 2; word-spacing: 0px; -webkit-text-stroke-width: 0px; background-color: rgb(255, 255, 255); text-decoration-thickness: initial; text-decoration-style: initial; text-decoration-color: initial; float: none; display: inline !important;&quot;&gt;&lt;font style=&quot;font-size: 18px;&quot;&gt;Minimum ΣT(j) Python Script&lt;/font&gt;&lt;/span&gt;&lt;br&gt;&lt;/font&gt;" style="rounded=0;whiteSpace=wrap;html=1;" vertex="1" parent="4guwdgJZDsBy7avfMB6--40">
          <mxGeometry x="217.75" y="-10" width="271.5" height="20" as="geometry" />
        </mxCell>
        <mxCell id="4guwdgJZDsBy7avfMB6--113" value="As is Vectors - 1/3" style="swimlane;whiteSpace=wrap;html=1;" vertex="1" collapsed="1" parent="4guwdgJZDsBy7avfMB6--40">
          <mxGeometry x="162.75" y="220" width="217" height="30" as="geometry">
            <mxRectangle x="197" y="210" width="143" height="60" as="alternateBounds" />
          </mxGeometry>
        </mxCell>
        <mxCell id="4guwdgJZDsBy7avfMB6--114" value="To be Hybrid Vectors - 1/3" style="swimlane;whiteSpace=wrap;html=1;" vertex="1" collapsed="1" parent="4guwdgJZDsBy7avfMB6--40">
          <mxGeometry x="162.75" y="290" width="217" height="30" as="geometry">
            <mxRectangle x="197" y="290" width="143" height="60" as="alternateBounds" />
          </mxGeometry>
        </mxCell>
        <mxCell id="4guwdgJZDsBy7avfMB6--119" value="To be Mutation Vectors - 1/3" style="swimlane;whiteSpace=wrap;html=1;" vertex="1" collapsed="1" parent="4guwdgJZDsBy7avfMB6--40">
          <mxGeometry x="160.75" y="350" width="217" height="30" as="geometry">
            <mxRectangle x="197" y="210" width="143" height="60" as="alternateBounds" />
          </mxGeometry>
        </mxCell>
      </root>
    </mxGraphModel>
  </diagram>
</mxfile>
